# xmcd CD database file
#
# Track frame offsets:
#	150
#	12812
#	25724
#	42517
#	58724
#	73418
#	88176
#	100615
#	112376
#	121967
#	126899
#	144465
#	153917
#	167316
#	184606
#	193536
#
# Disc length: 2641 seconds
#
# Revision: 0
# Processed by: cddbd v1.5.2PL0 Copyright (c) Steve Scherf et al.
# Submitted via: CDex 1.70beta2
#
DISCID=d80a4f10
DTITLE=Keith Mack - While We're Here
DYEAR=2006
DGENRE=New Age
TTITLE0=All This Time
TTITLE1=While We're Here
TTITLE2=When I Fall
TTITLE3=Moodance
TTITLE4=For Giving
TTITLE5=Where The Sky Meets The Sea
TTITLE6=It's Not What You Think
TTITLE7=What Happened...
TTITLE8=Deep South
TTITLE9=A Visit With Andy (The Fishing Hole)
TTITLE10=Hallelujah I Love Her So
TTITLE11=Major Fascination
TTITLE12=Sand Castles
TTITLE13=Autumn Chill
TTITLE14=Until Then
TTITLE15=(Untitiled)
EXTD=YEAR: 2006
EXTT0=
EXTT1=
EXTT2=
EXTT3=
EXTT4=
EXTT5=
EXTT6=
EXTT7=
EXTT8=
EXTT9=
EXTT10=
EXTT11=
EXTT12=
EXTT13=
EXTT14=
EXTT15=
PLAYORDER=
